<svg width="32" height="17" viewBox="0 0 32 17" fill="none" xmlns="http://www.w3.org/2000/svg">
<path d="M31.0873 4.38689C31.8733 3.53104 31.8676 2.1496 31.0746 1.30136C30.2815 0.453119 29.0014 0.459282 28.2154 1.31513L23.5053 6.44376C21.5937 8.5252 20.2781 9.95299 19.1634 10.9191C18.0805 11.8576 17.385 12.1795 16.7621 12.2652C16.371 12.319 15.9752 12.319 15.5841 12.2652C14.9612 12.1795 14.2657 11.8576 13.1828 10.9191C12.0681 9.95299 10.7525 8.5252 8.84092 6.44377L4.13078 1.31513C3.34478 0.459284 2.06469 0.453121 1.27164 1.30136C0.478589 2.14961 0.472878 3.53104 1.25889 4.38689L6.05387 9.60792C7.85981 11.5744 9.33581 13.1816 10.6509 14.3214C12.0185 15.5066 13.4066 16.3646 15.0728 16.5938C15.8034 16.6943 16.5428 16.6943 17.2734 16.5938C18.9396 16.3646 20.3277 15.5066 21.6953 14.3214C23.0104 13.1816 24.4864 11.5744 26.2923 9.60794L31.0873 4.38689Z" fill="#FAFAFA"/>
</svg>
