<svg width="29" height="20" viewBox="0 0 29 20" fill="none" xmlns="http://www.w3.org/2000/svg">
<path d="M1.14844 8.99993C0.596153 8.99993 0.148438 9.44765 0.148438 9.99993C0.148438 10.5522 0.596153 10.9999 1.14844 10.9999L1.14844 8.99993ZM27.8151 10.9999C28.3674 10.9999 28.8151 10.5522 28.8151 9.99993C28.8151 9.44764 28.3674 8.99993 27.8151 8.99993V10.9999ZM21.8524 0.956341C21.4601 0.567563 20.827 0.570388 20.4382 0.962651C20.0494 1.35491 20.0522 1.98807 20.4445 2.37685L21.8524 0.956341ZM24.0867 4.57877L23.3828 5.28903L24.0867 4.57877ZM24.0867 15.4211L24.7907 16.1313L24.0867 15.4211ZM20.4445 17.623C20.0522 18.0118 20.0494 18.6449 20.4382 19.0372C20.827 19.4295 21.4601 19.4323 21.8524 19.0435L20.4445 17.623ZM27.782 9.47771L28.7739 9.35127V9.35127L27.782 9.47771ZM27.782 10.5222L28.7739 10.6486V10.6486L27.782 10.5222ZM1.14844 10.9999L27.8151 10.9999V8.99993L1.14844 8.99993L1.14844 10.9999ZM20.4445 2.37685L23.3828 5.28903L24.7907 3.86852L21.8524 0.956341L20.4445 2.37685ZM23.3828 14.7108L20.4445 17.623L21.8524 19.0435L24.7907 16.1313L23.3828 14.7108ZM23.3828 5.28903C24.5711 6.46679 25.4012 7.29169 25.9657 7.99456C26.5175 8.68166 26.7327 9.15451 26.79 9.60415L28.7739 9.35127C28.6508 8.38558 28.19 7.57017 27.5251 6.74223C26.8728 5.93007 25.9456 5.01317 24.7907 3.86852L23.3828 5.28903ZM24.7907 16.1313C25.9456 14.9867 26.8728 14.0698 27.5251 13.2576C28.19 12.4297 28.6508 11.6143 28.7739 10.6486L26.79 10.3957C26.7327 10.8453 26.5175 11.3182 25.9657 12.0053C25.4012 12.7082 24.5711 13.5331 23.3828 14.7108L24.7907 16.1313ZM26.79 9.60414C26.8235 9.86696 26.8235 10.1329 26.79 10.3957L28.7739 10.6486C28.8288 10.2179 28.8288 9.78199 28.7739 9.35127L26.79 9.60414Z" fill="#4D4D4D"/>
</svg>
