<svg width="90" height="90" viewBox="0 0 90 90" fill="none" xmlns="http://www.w3.org/2000/svg">
<circle cx="45" cy="45" r="44" stroke="white" stroke-width="2"/>
<path d="M30.3335 43.6247C29.5741 43.6247 28.9585 44.2403 28.9585 44.9997C28.9585 45.7591 29.5741 46.3747 30.3335 46.3747L30.3335 43.6247ZM59.6668 46.3747C60.4262 46.3747 61.0418 45.7591 61.0418 44.9997C61.0418 44.2403 60.4262 43.6247 59.6668 43.6247V46.3747ZM53.3014 34.8564C52.7621 34.3218 51.8915 34.3257 51.3569 34.8651C50.8223 35.4044 50.8262 36.275 51.3656 36.8096L53.3014 34.8564ZM55.5656 39.0364L54.5977 40.013L55.5656 39.0364ZM55.5656 50.9629L56.5335 51.9395L55.5656 50.9629ZM51.3656 53.1897C50.8262 53.7243 50.8223 54.5949 51.3569 55.1343C51.8915 55.6736 52.7621 55.6775 53.3014 55.1429L51.3656 53.1897ZM59.6304 44.4252L60.9943 44.2514V44.2514L59.6304 44.4252ZM59.6304 45.5741L60.9943 45.748V45.748L59.6304 45.5741ZM30.3335 46.3747L59.6668 46.3747V43.6247L30.3335 43.6247L30.3335 46.3747ZM51.3656 36.8096L54.5977 40.013L56.5335 38.0598L53.3014 34.8564L51.3656 36.8096ZM54.5977 49.9863L51.3656 53.1897L53.3014 55.1429L56.5335 51.9395L54.5977 49.9863ZM54.5977 40.013C55.9094 41.3131 56.8092 42.2078 57.4181 42.966C58.0095 43.7024 58.2124 44.1754 58.2664 44.5991L60.9943 44.2514C60.8499 43.1182 60.3092 42.1741 59.5622 41.244C58.8327 40.3356 57.7993 39.3144 56.5335 38.0598L54.5977 40.013ZM56.5335 51.9395C57.7993 50.685 58.8327 49.6637 59.5622 48.7553C60.3092 47.8252 60.8499 46.8812 60.9943 45.748L58.2664 45.4003C58.2124 45.8239 58.0095 46.2969 57.4181 47.0334C56.8092 47.7915 55.9094 48.6863 54.5977 49.9863L56.5335 51.9395ZM58.2664 44.5991C58.3003 44.8651 58.3003 45.1343 58.2664 45.4003L60.9943 45.748C61.0577 45.2511 61.0577 44.7483 60.9943 44.2514L58.2664 44.5991Z" fill="white"/>
</svg>
