<svg width="90" height="90" viewBox="0 0 90 90" fill="none" xmlns="http://www.w3.org/2000/svg">
<circle cx="45" cy="45" r="44" transform="matrix(-1 0 0 1 90 0)" stroke="white" stroke-width="2"/>
<path d="M59.6665 43.6247C60.4259 43.6247 61.0415 44.2403 61.0415 44.9997C61.0415 45.7591 60.4259 46.3747 59.6665 46.3747L59.6665 43.6247ZM30.3332 46.3747C29.5738 46.3747 28.9582 45.7591 28.9582 44.9997C28.9582 44.2403 29.5738 43.6247 30.3332 43.6247V46.3747ZM36.6986 34.8564C37.2379 34.3218 38.1085 34.3257 38.6431 34.8651C39.1777 35.4044 39.1738 36.275 38.6344 36.8096L36.6986 34.8564ZM34.4344 39.0364L35.4023 40.013L34.4344 39.0364ZM34.4344 50.9629L33.4665 51.9395L34.4344 50.9629ZM38.6344 53.1897C39.1738 53.7243 39.1777 54.5949 38.6431 55.1343C38.1085 55.6736 37.2379 55.6775 36.6986 55.1429L38.6344 53.1897ZM30.3696 44.4252L29.0057 44.2514V44.2514L30.3696 44.4252ZM30.3696 45.5741L29.0057 45.748V45.748L30.3696 45.5741ZM59.6665 46.3747L30.3332 46.3747V43.6247L59.6665 43.6247L59.6665 46.3747ZM38.6344 36.8096L35.4023 40.013L33.4665 38.0598L36.6986 34.8564L38.6344 36.8096ZM35.4023 49.9863L38.6344 53.1897L36.6986 55.1429L33.4665 51.9395L35.4023 49.9863ZM35.4023 40.013C34.0906 41.3131 33.1908 42.2078 32.5819 42.966C31.9905 43.7024 31.7876 44.1754 31.7336 44.5991L29.0057 44.2514C29.1501 43.1182 29.6908 42.1741 30.4378 41.244C31.1673 40.3356 32.2007 39.3144 33.4665 38.0598L35.4023 40.013ZM33.4665 51.9395C32.2007 50.685 31.1673 49.6637 30.4378 48.7553C29.6908 47.8252 29.1501 46.8812 29.0057 45.748L31.7336 45.4003C31.7876 45.8239 31.9905 46.2969 32.5819 47.0334C33.1908 47.7915 34.0906 48.6863 35.4023 49.9863L33.4665 51.9395ZM31.7336 44.5991C31.6997 44.8651 31.6997 45.1343 31.7336 45.4003L29.0057 45.748C28.9423 45.2511 28.9423 44.7483 29.0057 44.2514L31.7336 44.5991Z" fill="white"/>
</svg>
