<svg width="286" height="191" viewBox="0 0 286 191" fill="none" xmlns="http://www.w3.org/2000/svg">
<path d="M240.838 190.819C265.295 190.819 285.12 170.993 285.12 146.536C285.12 122.08 265.295 102.254 240.838 102.254C216.381 102.254 196.555 122.08 196.555 146.536C196.555 170.993 216.381 190.819 240.838 190.819Z" fill="url(#paint0_linear_299_689)"/>
<path d="M240.838 190.819C265.295 190.819 285.12 170.993 285.12 146.536C285.12 122.08 265.295 102.254 240.838 102.254C216.381 102.254 196.555 122.08 196.555 146.536C196.555 170.993 216.381 190.819 240.838 190.819Z" fill="url(#paint1_radial_299_689)"/>
<path d="M240.838 190.819C265.295 190.819 285.12 170.993 285.12 146.536C285.12 122.08 265.295 102.254 240.838 102.254C216.381 102.254 196.555 122.08 196.555 146.536C196.555 170.993 216.381 190.819 240.838 190.819Z" fill="url(#paint2_radial_299_689)"/>
<path d="M44.2826 190.819C68.7392 190.819 88.565 170.993 88.565 146.536C88.565 122.08 68.7392 102.254 44.2826 102.254C19.826 102.254 0 122.08 0 146.536C0 170.993 19.826 190.819 44.2826 190.819Z" fill="url(#paint3_linear_299_689)"/>
<path d="M44.2826 190.819C68.7392 190.819 88.565 170.993 88.565 146.536C88.565 122.08 68.7392 102.254 44.2826 102.254C19.826 102.254 0 122.08 0 146.536C0 170.993 19.826 190.819 44.2826 190.819Z" fill="url(#paint4_radial_299_689)"/>
<path d="M44.2826 190.819C68.7392 190.819 88.565 170.993 88.565 146.536C88.565 122.08 68.7392 102.254 44.2826 102.254C19.826 102.254 0 122.08 0 146.536C0 170.993 19.826 190.819 44.2826 190.819Z" fill="url(#paint5_radial_299_689)"/>
<path d="M243.269 173.89C259.723 173.89 273.062 160.551 273.062 144.097C273.062 127.643 259.723 114.305 243.269 114.305C226.815 114.305 213.477 127.643 213.477 144.097C213.477 160.551 226.815 173.89 243.269 173.89Z" stroke="url(#paint6_linear_299_689)" stroke-width="7.69782"/>
<path d="M45.3836 173.89C61.8375 173.89 75.1761 160.551 75.1761 144.097C75.1761 127.643 61.8375 114.305 45.3836 114.305C28.9296 114.305 15.5911 127.643 15.5911 144.097C15.5911 160.551 28.9296 173.89 45.3836 173.89Z" stroke="url(#paint7_linear_299_689)" stroke-width="7.69782"/>
<path d="M126.393 79.3212L54.5895 151.168L44.2825 130.619L110.997 63.9255L126.393 79.3212Z" fill="url(#paint8_radial_299_689)"/>
<path d="M126.393 79.3212L54.5895 151.168L44.2825 130.619L110.997 63.9255L126.393 79.3212Z" fill="url(#paint9_linear_299_689)"/>
<path d="M126.393 79.3212L54.5895 151.168L44.2825 130.619L110.997 63.9255L126.393 79.3212Z" fill="url(#paint10_radial_299_689)"/>
<path d="M241.057 140.904H152.052V161.431H241.057V140.904Z" fill="url(#paint11_linear_299_689)"/>
<path d="M241.057 140.904H152.052V161.431H241.057V140.904Z" fill="url(#paint12_linear_299_689)"/>
<path d="M158.52 76.9406L232.111 150.532L246.583 136.061L172.991 62.4697L158.52 76.9406Z" fill="url(#paint13_linear_299_689)"/>
<path d="M158.52 76.9406L232.111 150.532L246.583 136.061L172.991 62.4697L158.52 76.9406Z" fill="url(#paint14_radial_299_689)"/>
<path d="M44.2824 162.392C53.3167 162.392 60.6403 155.068 60.6403 146.034C60.6403 137 53.3167 129.675 44.2824 129.675C35.2483 129.675 27.9246 137 27.9246 146.034C27.9246 155.068 35.2483 162.392 44.2824 162.392Z" fill="url(#paint15_linear_299_689)"/>
<path d="M39.1506 58.7936L54.5463 38.2661H121.261C132.55 38.2661 141.789 47.5035 141.789 58.7936H213.635V48.222C213.635 42.7822 218.047 38.2661 223.59 38.2661H265.159C270.702 38.2661 275.218 42.7822 275.32 48.222V49.351C275.32 55.4066 272.96 61.1543 268.648 65.4651C255.818 78.2948 239.91 87.1216 222.975 93.4852C209.528 98.5144 198.342 108.162 191.26 120.376H191.022C185.57 129.408 182.844 139.98 182.844 151.168V152.297C182.844 162.971 173.435 171.695 162.316 171.695H121.261C110.141 171.695 100.734 161.842 100.734 151.168C100.734 139.775 97.6063 129.838 92.8346 120.376H92.7269C86.1591 108.06 75.9977 97.6933 63.0653 91.2271L57.5225 88.4559C46.2326 82.9135 39.1506 71.4181 39.1506 58.7936Z" fill="url(#paint16_linear_299_689)"/>
<path d="M92.835 120.376C97.6066 129.838 100.734 139.775 100.734 151.168C100.734 161.842 110.142 171.695 121.261 171.695H162.317C173.435 171.695 182.844 162.971 182.844 152.297V151.168C182.844 139.98 185.57 129.408 191.022 120.376H92.835Z" fill="url(#paint17_linear_299_689)"/>
<path d="M92.835 120.376C97.6066 129.838 100.734 139.775 100.734 151.168C100.734 161.842 110.142 171.695 121.261 171.695H162.317C173.435 171.695 182.844 162.971 182.844 152.297V151.168C182.844 139.98 185.57 129.408 191.022 120.376H92.835Z" fill="url(#paint18_linear_299_689)"/>
<path d="M89.8777 81.0722H79.9608C74.5071 81.0722 70.0447 76.4781 70.0447 70.8639C70.0447 65.2486 74.5071 60.6555 79.9608 60.6555H89.8777V81.0722Z" fill="#B31E61"/>
<path d="M90.5725 79.3212H80.3088C74.6634 79.3212 70.0447 74.7025 70.0447 69.0575C70.0447 63.4124 74.6634 58.7937 80.3088 58.7937H90.5725V79.3212Z" fill="url(#paint19_radial_299_689)"/>
<path d="M254.69 58.8963C249.045 58.8963 244.426 63.515 244.426 69.1601C244.426 73.8814 247.608 77.5764 251.918 78.808C257.871 74.9078 263.517 70.597 268.546 65.4651C270.496 63.515 271.932 61.257 273.061 58.7937H254.69V58.8963Z" fill="url(#paint20_linear_299_689)"/>
<path d="M203.679 79.3212H151.744C146.304 79.3212 141.788 74.9078 141.788 69.3654V58.7937H213.635V69.3654C213.635 74.9078 209.119 79.3212 203.679 79.3212Z" fill="url(#paint21_linear_299_689)"/>
<path d="M57.4201 88.456C58.7544 85.6848 59.6782 82.6056 59.6782 79.3212C59.6782 68.0311 50.4408 58.7937 39.1506 58.7937C39.1506 71.4181 46.2325 82.9135 57.4201 88.456Z" fill="#EDB42B"/>
<path d="M39.1355 58.7925C45.6017 58.7925 51.7599 55.9187 55.9681 50.8894L88.8122 11.5792C93.3283 6.1394 87.8885 -1.86633 81.217 0.391702C56.6866 8.60271 39.1355 31.6962 39.1355 58.7925Z" fill="url(#paint22_radial_299_689)"/>
<path d="M39.1355 58.7925C45.6017 58.7925 51.7599 55.9187 55.9681 50.8894L88.8122 11.5792C93.3283 6.1394 87.8885 -1.86633 81.217 0.391702C56.6866 8.60271 39.1355 31.6962 39.1355 58.7925Z" fill="url(#paint23_radial_299_689)"/>
<path d="M85.4407 38.2662H64.9129C62.039 38.2662 59.781 36.0082 59.781 33.1343C59.781 30.2605 62.039 28.0024 64.9129 28.0024H85.4407C88.3146 28.0024 90.5726 30.2605 90.5726 33.1343C90.5726 36.0082 88.2119 38.2662 85.4407 38.2662Z" fill="url(#paint24_radial_299_689)"/>
<path d="M240.838 162.392C249.872 162.392 257.195 155.068 257.195 146.034C257.195 137 249.872 129.675 240.838 129.675C231.803 129.675 224.48 137 224.48 146.034C224.48 155.068 231.803 162.392 240.838 162.392Z" fill="url(#paint25_linear_299_689)"/>
<path d="M138.303 58.5657V72.4515C138.303 78.1202 142.898 82.7153 148.567 82.7153H203.078" stroke="url(#paint26_linear_299_689)" stroke-width="2.56594" stroke-linecap="round"/>
<defs>
<linearGradient id="paint0_linear_299_689" x1="220.418" y1="135.402" x2="286.932" y2="135.402" gradientUnits="userSpaceOnUse">
<stop offset="0.239044" stop-color="#34214F"/>
<stop offset="1" stop-color="#241337"/>
</linearGradient>
<radialGradient id="paint1_radial_299_689" cx="0" cy="0" r="1" gradientUnits="userSpaceOnUse" gradientTransform="translate(240.838 142.574) rotate(-65.5366) scale(24.1618 25.2361)">
<stop offset="0.523134" stop-color="#2D114D"/>
<stop offset="1" stop-color="#2B1249" stop-opacity="0"/>
</radialGradient>
<radialGradient id="paint2_radial_299_689" cx="0" cy="0" r="1" gradientUnits="userSpaceOnUse" gradientTransform="translate(252.914 149.6) rotate(33.4862) scale(9.80455 11.0171)">
<stop stop-color="#392A49"/>
<stop offset="1" stop-color="#392A49" stop-opacity="0"/>
</radialGradient>
<linearGradient id="paint3_linear_299_689" x1="23.8632" y1="135.402" x2="90.3765" y2="135.402" gradientUnits="userSpaceOnUse">
<stop offset="0.239044" stop-color="#34214F"/>
<stop offset="1" stop-color="#241337"/>
</linearGradient>
<radialGradient id="paint4_radial_299_689" cx="0" cy="0" r="1" gradientUnits="userSpaceOnUse" gradientTransform="translate(44.2826 142.574) rotate(-65.5366) scale(24.1618 25.2361)">
<stop offset="0.523134" stop-color="#2D114D"/>
<stop offset="1" stop-color="#2B1249" stop-opacity="0"/>
</radialGradient>
<radialGradient id="paint5_radial_299_689" cx="0" cy="0" r="1" gradientUnits="userSpaceOnUse" gradientTransform="translate(56.3597 149.6) rotate(33.4862) scale(9.80455 11.0171)">
<stop stop-color="#392A49"/>
<stop offset="1" stop-color="#392A49" stop-opacity="0"/>
</radialGradient>
<linearGradient id="paint6_linear_299_689" x1="265.513" y1="114.305" x2="220.579" y2="167.346" gradientUnits="userSpaceOnUse">
<stop offset="0.0830122" stop-color="#615B6B"/>
<stop offset="0.390771" stop-color="#615B6B" stop-opacity="0"/>
<stop offset="0.692394" stop-color="#615B6B" stop-opacity="0"/>
<stop offset="0.934982" stop-color="#615B6B"/>
</linearGradient>
<linearGradient id="paint7_linear_299_689" x1="67.628" y1="114.305" x2="22.6941" y2="167.346" gradientUnits="userSpaceOnUse">
<stop offset="0.0830122" stop-color="#615B6B"/>
<stop offset="0.390771" stop-color="#615B6B" stop-opacity="0"/>
<stop offset="0.692394" stop-color="#615B6B" stop-opacity="0"/>
<stop offset="0.934982" stop-color="#615B6B"/>
</linearGradient>
<radialGradient id="paint8_radial_299_689" cx="0" cy="0" r="1" gradientUnits="userSpaceOnUse" gradientTransform="translate(60.213 116.888) rotate(42.4362) scale(18.6783 53.1483)">
<stop stop-color="#7E7782"/>
<stop offset="1" stop-color="#4D3859"/>
</radialGradient>
<linearGradient id="paint9_linear_299_689" x1="82.9321" y1="126.791" x2="76.3567" y2="120.376" gradientUnits="userSpaceOnUse">
<stop stop-color="#350B32"/>
<stop offset="1" stop-color="#350B32" stop-opacity="0"/>
</linearGradient>
<radialGradient id="paint10_radial_299_689" cx="0" cy="0" r="1" gradientUnits="userSpaceOnUse" gradientTransform="translate(47.4899 129.357) rotate(-31.8836) scale(47.9722 45.7849)">
<stop offset="0.767888" stop-color="#350B32" stop-opacity="0"/>
<stop offset="1" stop-color="#350B32"/>
</radialGradient>
<linearGradient id="paint11_linear_299_689" x1="200.76" y1="161.431" x2="200.76" y2="146.036" gradientUnits="userSpaceOnUse">
<stop stop-color="#594561"/>
<stop offset="1" stop-color="#9D909F"/>
</linearGradient>
<linearGradient id="paint12_linear_299_689" x1="201.767" y1="162.393" x2="201.767" y2="154.054" gradientUnits="userSpaceOnUse">
<stop stop-color="#3A1950"/>
<stop offset="1" stop-color="#3A1950" stop-opacity="0"/>
</linearGradient>
<linearGradient id="paint13_linear_299_689" x1="217.025" y1="111.981" x2="205.567" y2="123.377" gradientUnits="userSpaceOnUse">
<stop stop-color="#868089"/>
<stop offset="1" stop-color="#362040"/>
</linearGradient>
<radialGradient id="paint14_radial_299_689" cx="0" cy="0" r="1" gradientUnits="userSpaceOnUse" gradientTransform="translate(220.541 133.74) rotate(-123.97) scale(37.3676 44.4957)">
<stop offset="0.767888" stop-color="#350B32" stop-opacity="0"/>
<stop offset="0.978525" stop-color="#350B32"/>
</radialGradient>
<linearGradient id="paint15_linear_299_689" x1="50.663" y1="131.586" x2="37.3494" y2="157.57" gradientUnits="userSpaceOnUse">
<stop stop-color="#DFCAF6"/>
<stop offset="1" stop-color="#DDC5F6"/>
</linearGradient>
<linearGradient id="paint16_linear_299_689" x1="32.0943" y1="79.3674" x2="279.708" y2="79.3674" gradientUnits="userSpaceOnUse">
<stop stop-color="#DE367F"/>
<stop offset="0.689119" stop-color="#F63551"/>
<stop offset="1" stop-color="#FD4C61"/>
</linearGradient>
<linearGradient id="paint17_linear_299_689" x1="92.835" y1="146.082" x2="185.053" y2="146.082" gradientUnits="userSpaceOnUse">
<stop stop-color="#FC444F"/>
<stop offset="1" stop-color="#FF714D"/>
</linearGradient>
<linearGradient id="paint18_linear_299_689" x1="188.536" y1="140.195" x2="158.673" y2="140.195" gradientUnits="userSpaceOnUse">
<stop stop-color="#FF7A4A"/>
<stop offset="1" stop-color="#FF7A4A" stop-opacity="0"/>
</linearGradient>
<radialGradient id="paint19_radial_299_689" cx="0" cy="0" r="1" gradientUnits="userSpaceOnUse" gradientTransform="translate(76.7582 60.6792) scale(12.7265 17.9113)">
<stop stop-color="#FFDE49"/>
<stop offset="1" stop-color="#FF8947"/>
</radialGradient>
<linearGradient id="paint20_linear_299_689" x1="249.466" y1="65.2958" x2="260.544" y2="75.1706" gradientUnits="userSpaceOnUse">
<stop stop-color="#B6015E"/>
<stop offset="1" stop-color="#D40B4F"/>
</linearGradient>
<linearGradient id="paint21_linear_299_689" x1="141.747" y1="69.1037" x2="213.594" y2="69.1037" gradientUnits="userSpaceOnUse">
<stop stop-color="#513469"/>
<stop offset="1" stop-color="#1C1C1C"/>
</linearGradient>
<radialGradient id="paint22_radial_299_689" cx="0" cy="0" r="1" gradientUnits="userSpaceOnUse" gradientTransform="translate(85.2692 5.11406) rotate(133.531) scale(52.885 29.9267)">
<stop stop-color="#79F9FF"/>
<stop offset="1" stop-color="#309CE5"/>
</radialGradient>
<radialGradient id="paint23_radial_299_689" cx="0" cy="0" r="1" gradientUnits="userSpaceOnUse" gradientTransform="translate(82.772 24.6337) rotate(-140.332) scale(8.54194 24.4061)">
<stop stop-color="#5488BB"/>
<stop offset="1" stop-color="#5488BB" stop-opacity="0"/>
</radialGradient>
<radialGradient id="paint24_radial_299_689" cx="0" cy="0" r="1" gradientUnits="userSpaceOnUse" gradientTransform="translate(83.0626 30.6484) rotate(90) scale(4.61267 20.1164)">
<stop stop-color="#423B6B"/>
<stop offset="1" stop-color="#41175C"/>
</radialGradient>
<linearGradient id="paint25_linear_299_689" x1="247.218" y1="131.586" x2="233.905" y2="157.57" gradientUnits="userSpaceOnUse">
<stop stop-color="#DFCAF6"/>
<stop offset="1" stop-color="#DDC5F6"/>
</linearGradient>
<linearGradient id="paint26_linear_299_689" x1="147.557" y1="81.1357" x2="158.153" y2="66.9655" gradientUnits="userSpaceOnUse">
<stop stop-color="#FF4D61"/>
<stop offset="1" stop-color="#FF4D61" stop-opacity="0"/>
</linearGradient>
</defs>
</svg>
